<mxfile host="app.diagrams.net" modified="2023-07-06T13:47:21.385Z" agent="Mozilla/5.0 (Windows NT 10.0; Win64; x64; rv:102.0) Gecko/20100101 Firefox/102.0" version="21.6.1" etag="QJ9jlwT8uNt37GK_CdSr" type="github">
  <diagram name="Page-1" id="7Urv5NViKfF6HN0r-97T">
    <mxGraphModel>
      <root>
        <mxCell id="0" />
        <mxCell id="1" parent="0" />
      </root>
    </mxGraphModel>
  </diagram>
</mxfile>
